<svg width="16" height="16" viewBox="0 0 16 16" fill="none" xmlns="http://www.w3.org/2000/svg">
    <path d="M14.125 4.25C14.125 4.48698 14.043 4.69661 13.8789 4.87891L6.87891 11.8789C6.69661 12.043 6.48698 12.125 6.25 12.125C6.01302 12.125 5.80339 12.043 5.62109 11.8789L2.12109 8.37891C1.95703 8.19661 1.875 7.98698 1.875 7.75C1.875 7.49479 1.96615 7.28516 2.14844 7.12109C2.3125 6.95703 2.51302 6.875 2.75 6.875C2.98698 6.875 3.19661 6.95703 3.37891 7.12109L6.25 10.0195L12.6211 3.62109C12.8034 3.45703 13.013 3.375 13.25 3.375C13.487 3.375 13.6875 3.45703 13.8516 3.62109C14.0339 3.78516 14.125 3.99479 14.125 4.25Z" fill="white"/>
</svg>
