<svg width="16" height="16" viewBox="0 0 16 16" fill="none" xmlns="http://www.w3.org/2000/svg">
<path d="M13.6875 7.75C13.6875 8.00521 13.6055 8.21484 13.4414 8.37891C13.2773 8.54297 13.0677 8.625 12.8125 8.625H8.875V12.5625C8.875 12.8177 8.79297 13.0273 8.62891 13.1914C8.46484 13.3555 8.25521 13.4375 8 13.4375C7.74479 13.4375 7.53516 13.3555 7.37109 13.1914C7.20703 13.0273 7.125 12.8177 7.125 12.5625V8.625H3.1875C2.93229 8.625 2.72266 8.54297 2.55859 8.37891C2.39453 8.21484 2.3125 8.00521 2.3125 7.75C2.3125 7.49479 2.39453 7.28516 2.55859 7.12109C2.72266 6.95703 2.93229 6.875 3.1875 6.875H7.125V2.9375C7.125 2.68229 7.20703 2.47266 7.37109 2.30859C7.53516 2.14453 7.74479 2.0625 8 2.0625C8.25521 2.0625 8.46484 2.14453 8.62891 2.30859C8.79297 2.47266 8.875 2.68229 8.875 2.9375V6.875H12.8125C13.0677 6.875 13.2773 6.95703 13.4414 7.12109C13.6055 7.28516 13.6875 7.49479 13.6875 7.75Z" fill="white"/>
</svg>
